<svg id="visual" viewBox="0 0 900 600" width="900" height="600" xmlns="http://www.w3.org/2000/svg" xmlns:xlink="http://www.w3.org/1999/xlink" version="1.1"><rect x="0" y="0" width="900" height="600" fill="#fff"></rect><path d="M0 312L30 304.5C60 297 120 282 180 278.7C240 275.3 300 283.7 360 306C420 328.3 480 364.7 540 380.7C600 396.7 660 392.3 720 374.3C780 356.3 840 324.7 870 308.8L900 293L900 601L870 601C840 601 780 601 720 601C660 601 600 601 540 601C480 601 420 601 360 601C300 601 240 601 180 601C120 601 60 601 30 601L0 601Z" fill="#6221C7" stroke-linecap="round" stroke-linejoin="miter"></path></svg>