<svg width="18" height="21" viewBox="0 0 18 21" fill="none" xmlns="http://www.w3.org/2000/svg">
<path fill-rule="evenodd" clip-rule="evenodd" d="M3.25 6C3.25 2.82436 5.82436 0.25 9 0.25C12.1756 0.25 14.75 2.82436 14.75 6V7.11372C14.75 7.18052 14.7413 7.24529 14.7249 7.30693C16.161 7.83463 17.2803 8.99318 17.7553 10.4549C18 11.2081 18 12.1387 18 14C18 15.8613 18 16.7919 17.7553 17.5451C17.2607 19.0673 16.0673 20.2607 14.5451 20.7553C13.7919 21 12.8613 21 11 21H6.99998C5.13871 21 4.20808 21 3.45492 20.7553C1.93273 20.2607 0.739307 19.0673 0.244717 17.5451C0 16.7919 0 15.8613 0 14C0 12.1387 0 11.2081 0.244717 10.4549C0.719664 8.99318 1.83903 7.83463 3.27512 7.30693C3.25873 7.24529 3.25 7.18052 3.25 7.11372V6ZM4.75 7.03413C5.31973 7 6.03471 7 7 7H11C11.9653 7 12.6803 7 13.25 7.03413V6C13.25 3.65279 11.3472 1.75 9 1.75C6.65279 1.75 4.75 3.65279 4.75 6V7.03413ZM9 11.25C9.41421 11.25 9.75 11.5858 9.75 12V16C9.75 16.4142 9.41421 16.75 9 16.75C8.58579 16.75 8.25 16.4142 8.25 16V12C8.25 11.5858 8.58579 11.25 9 11.25Z" fill="#FAFAFA"/>
</svg>
